<?xml version="1.0" encoding="UTF-8"?>
<svg width="23px" height="23px" viewBox="0 0 23 23" version="1.1" xmlns="http://www.w3.org/2000/svg" xmlns:xlink="http://www.w3.org/1999/xlink">
  <path d="M22,11.842279 C22,12.8130415 21.2240132,13.6 20.25175,13.6 L18.5035,13.6 C18.3586,14.0788 18.1696,14.5345 17.9365,14.9671 L19.2389242,16.2673749 C19.9252903,16.9526085 19.9370662,18.0535041 19.2396123,18.7519445 L18.7543877,19.2378555 C18.0684016,19.9248119 16.9474376,19.9168376 16.2695241,19.2389242 L14.9671,17.9365 C14.5345,18.1717 14.0809,18.3607 13.6,18.5035 L13.6,20.25175 C13.6,21.2172819 12.8288849,22 11.8414006,22 L11.1543994,22 C10.1831518,22 9.3958,21.2240132 9.3958,20.25175 L9.3958,18.5035 C8.9527,18.3712 8.5285,18.2011 8.1253,17.989 L6.8779,19.23535 C6.18898,19.9236901 5.08625145,19.9362959 4.38929069,19.2378555 L3.90440931,18.7519445 C3.21890834,18.0649882 3.20615764,16.9660745 3.90078467,16.2726399 L5.1097,15.0658 C4.8514,14.6059 4.6435,14.1166 4.4902,13.6 L2.7451,13.6 C1.78130788,13.6 1,12.8296553 1,11.8431574 L1,11.1568426 C1,10.1865652 1.7745885,9.4 2.7451,9.4 L4.4902,9.4 C4.6351,8.9191 4.8241,8.4634 5.0593,8.0287 L3.90437432,6.87377432 C3.22005247,6.18945247 3.2103189,5.0896811 3.90826615,4.39173385 L4.39383385,3.90616615 C5.08030509,3.21969491 6.19253609,3.21844903 6.86292702,3.88825241 L8.0329,5.0572 C8.4655,4.822 8.9212,4.633 9.4021,4.4902 L9.4021,2.7451 C9.4021,1.78130788 10.1724447,1 11.1589426,1 L11.8452574,1 C12.8155348,1 13.6021,1.77505456 13.6021,2.74615 L13.6021,4.4923 C14.1166,4.6456 14.6038,4.8514 15.0658,5.1097 L16.2747153,3.89974697 C16.9582145,3.21566114 18.0577041,3.2061189 18.7561445,3.90406615 L19.2420555,4.38963385 C19.9290118,5.07610509 19.9326891,6.18581093 19.23955,6.87895 L17.9932,8.1253 C18.2032,8.5306 18.3754,8.9527 18.5077,9.3979 L20.25385,9.3979 C21.218222,9.3979 22,10.1686299 22,11.155621 L22,11.842279 Z M11.4991244,16.75 C14.3996576,16.7430023 16.7403773,14.4022826 16.747375,11.5017494 C16.7403773,8.60121626 14.3996576,6.2604965 11.4991244,6.25 C8.59859126,6.2604965 6.2578715,8.60121626 6.247375,11.5017494 C6.2578715,14.4022826 8.59859126,16.7430023 11.4991244,16.75 Z" stroke="#FFFFFF" fill-rule="nonzero"></path>
</svg>
