<?xml version="1.0" encoding="UTF-8"?>
<svg width="23px" height="19px" viewBox="0 0 23 19" version="1.1" xmlns="http://www.w3.org/2000/svg" xmlns:xlink="http://www.w3.org/1999/xlink">
    <!-- Generator: Sketch 43.1 (39012) - http://www.bohemiancoding.com/sketch -->
    <title>Untitled 13</title>
    <desc>Created with Sketch.</desc>
    <defs></defs>
    <g id="Page-1" stroke="none" stroke-width="1" fill="none" fill-rule="evenodd">
        <g id="reload" transform="translate(-1.000000, 2.000000)">
            <g id="Group" transform="translate(5.000000, 0.000000)">
                <path d="M0.681340499,4.05985861 C1.55406138,2.29566578 3.47416115,2.00309465e-16 7.55732855,0 C12.1864872,0 14.0354214,2.95065494 14.7298959,4.7323011" id="Path-2" stroke="#000000" stroke-width="3"></path>
                <polygon id="Path-3" fill="#000000" fill-rule="nonzero" transform="translate(14.952775, 5.515880) rotate(-25.000000) translate(-14.952775, -5.515880) " points="10.2692659 3.81427843 14.985838 7.25867967 19.6362847 3.77308113"></polygon>
            </g>
            <g id="Group" transform="translate(10.000000, 10.500000) rotate(-180.000000) translate(-10.000000, -10.500000) translate(0.000000, 6.000000)">
                <path d="M0.81846344,3.79488605 C1.7490228,2.07448113 3.67584634,1.9041532e-16 7.55732855,0 C12.1864872,0 14.0354214,2.95065494 14.7298959,4.7323011" id="Path-2" stroke="#000000" stroke-width="3"></path>
                <polygon id="Path-3" fill="#000000" fill-rule="nonzero" transform="translate(15.015353, 5.520208) rotate(-25.000000) translate(-15.015353, -5.520208) " points="10.6391762 4.18374205 14.99353 7.23263847 19.3915306 3.80777762"></polygon>
            </g>
        </g>
    </g>
</svg>