<?xml version="1.0" encoding="UTF-8"?>
<svg width="23px" height="23px" viewBox="0 0 23 23" version="1.1" xmlns="http://www.w3.org/2000/svg" xmlns:xlink="http://www.w3.org/1999/xlink">
    <!-- Generator: Sketch 43.1 (39012) - http://www.bohemiancoding.com/sketch -->
    <title>Untitled 6</title>
    <desc>Created with Sketch.</desc>
    <defs></defs>
    <g id="Page-1" stroke="none" stroke-width="1" fill="none" fill-rule="evenodd">
        <g id="Group-2" transform="translate(0.000000, 4.000000)">
            <g id="Group" transform="translate(4.000000, 0.000000)">
                <path d="M0,6.0546875 C0,6.0546875 0.926180535,3.253067e-16 7.55732855,0 C12.1864872,0 14.0354214,2.95065494 14.7298959,4.7323011" id="Path-2" stroke="#000000" stroke-width="3"></path>
                <polygon id="Path-3" fill="#000000" transform="translate(15.023463, 5.490670) rotate(-25.000000) translate(-15.023463, -5.490670) " points="11.6693116 3.78140576 14.9818065 7.22644372 18.3776142 3.75489714"></polygon>
            </g>
            <g id="Group" transform="translate(9.500000, 10.500000) rotate(-180.000000) translate(-9.500000, -10.500000) translate(0.000000, 6.000000)">
                <path d="M0,6.0546875 C0,6.0546875 0.926180535,3.253067e-16 7.55732855,0 C12.1864872,0 14.0354214,2.95065494 14.7298959,4.7323011" id="Path-2" stroke="#000000" stroke-width="3"></path>
                <polygon id="Path-3" fill="#000000" transform="translate(15.023463, 5.490670) rotate(-25.000000) translate(-15.023463, -5.490670) " points="11.6693116 3.78140576 14.9818065 7.22644372 18.3776142 3.75489714"></polygon>
            </g>
        </g>
    </g>
</svg>