<?xml version="1.0" encoding="UTF-8"?>
<svg width="22px" height="22px" viewBox="0 0 22 22" version="1.1" xmlns="http://www.w3.org/2000/svg" xmlns:xlink="http://www.w3.org/1999/xlink">
    <g stroke="none" stroke-width="1" fill="none" fill-rule="evenodd">
        <path d="M21.537892,9.17122 C21.4637284,9.0740929 21.367792,9.0162589 21.2468509,8.9978881 L18.71083,8.60989 C18.5721985,8.1664393 18.3827071,7.7138032 18.1425259,7.2518116 C18.3087136,7.0208158 18.5580802,6.6952444 18.8906257,6.2747572 C19.2231712,5.85427 19.4587597,5.5472395 19.5973912,5.3531554 C19.6713847,5.2514356 19.7081263,5.1452932 19.7081263,5.034388 C19.7081263,4.905112 19.6759774,4.8035623 19.6111693,4.7295688 C19.2786238,4.2582217 18.5164057,3.4730401 17.324515,2.3735137 C17.21395,2.2811494 17.098282,2.2350523 16.9783615,2.2350523 C16.83973,2.2350523 16.7288248,2.2765567 16.6456459,2.3595655 L14.6779291,3.8424973 C14.2989463,3.6484132 13.8832219,3.4774627 13.4305858,3.3287953 L13.0425877,0.7789963 C13.0334023,0.6589057 12.980161,0.5595673 12.883204,0.4809811 C12.7860769,0.4023949 12.6731305,0.3632719 12.5435143,0.3632719 L9.4664053,0.3632719 C9.1984978,0.3632719 9.03214,0.4925479 8.967502,0.75127 C8.8474114,1.2130915 8.7133726,2.0722666 8.5655557,3.328285 C8.1312904,3.4670866 7.7116537,3.6426298 7.3044343,3.8550847 L5.392,2.3721529 C5.2719094,2.2797886 5.1518188,2.2336915 5.0317282,2.2336915 C4.8284587,2.2336915 4.3919821,2.5638556 3.7221283,3.224524 C3.0522745,3.8851924 2.5974271,4.3817143 2.3562253,4.7142598 C2.2730464,4.8343504 2.231542,4.9406629 2.231542,5.0330272 C2.231542,5.1439324 2.2776391,5.2548376 2.3700034,5.3655727 C2.9889973,6.1140127 3.4833079,6.7513774 3.8529352,7.2781771 C3.6219394,7.7030869 3.4418035,8.1281668 3.3125275,8.5530766 L0.7355125,8.9410747 C0.6339628,8.9596156 0.5461912,9.0196609 0.4721977,9.1213807 C0.3982042,9.2229304 0.3612925,9.3292429 0.3612925,9.439978 L0.3612925,12.517087 C0.3612925,12.6373477 0.3982042,12.7457014 0.4721977,12.8426584 C0.5461912,12.9397855 0.6422977,12.9977896 0.7632388,13.0161604 L3.2994298,13.3903804 C3.4287058,13.8430165 3.6180271,14.3002453 3.8675638,14.7613864 C3.7013761,14.9923822 3.4518394,15.3179536 3.1192939,15.7384408 C2.7867484,16.158928 2.5509898,16.4659585 2.4125284,16.6600426 C2.3385349,16.7619325 2.3016232,16.8679048 2.3016232,16.97881 C2.3016232,17.0989006 2.3339422,17.205043 2.3985802,17.2974073 C2.758852,17.7964807 3.5210701,18.572647 4.6852345,19.6257361 C4.7869543,19.7274559 4.9024522,19.7781457 5.0317282,19.7781457 C5.1703597,19.7781457 5.2858576,19.7366413 5.3782219,19.6536325 L7.3323307,18.1705306 C7.7113135,18.3646147 8.1270379,18.5355652 8.579674,18.6842326 L8.9676721,21.2340316 C8.9770276,21.3541222 9.0300988,21.4534606 9.1270558,21.5320468 C9.2240128,21.6108031 9.3372994,21.649756 9.4665754,21.649756 L12.5436844,21.649756 C12.8119321,21.649756 12.9781198,21.52048 13.0429279,21.2617579 C13.1628484,20.7997663 13.2967171,19.9407613 13.444534,18.6847429 C13.8787993,18.5461114 14.300137,18.3703981 14.7056554,18.1579432 L16.6182598,19.6548232 C16.7475358,19.737832 16.8677965,19.7793364 16.9785316,19.7793364 C17.181631,19.7793364 17.6158963,19.4515537 18.2809873,18.795478 C18.9464185,18.1395724 19.4036473,17.640499 19.6519933,17.298598 C19.7351722,17.2062337 19.7768467,17.1000913 19.7768467,16.9800007 C19.7768467,16.8599101 19.7307496,16.744072 19.6382152,16.633507 C18.9731242,15.820429 18.4788136,15.1830643 18.1552834,14.7210727 C18.340012,14.3791717 18.520318,13.9588546 18.6958612,13.4599513 L21.2592682,13.0721233 C21.3700033,13.0535824 21.4627078,12.993367 21.5365312,12.8916472 C21.6103546,12.7899274 21.6470962,12.6836149 21.6470962,12.5728798 L21.6470962,9.4957708 C21.6471132,9.3756802 21.6105247,9.2673265 21.5363611,9.1701994 M13.5127441,13.5147235 C12.8199268,14.2077109 11.9837152,14.5542046 11.0042794,14.5542046 C10.0248436,14.5542046 9.1888021,14.2077109 8.4958147,13.5147235 C7.8029974,12.8219062 7.4565037,11.9858647 7.4565037,11.0064289 C7.4565037,10.0269931 7.8028273,9.1909516 8.4958147,8.4979642 C9.1888021,7.8051469 10.0250137,7.4586532 11.0042794,7.4586532 C11.9837152,7.4586532 12.8199268,7.8051469 13.5127441,8.4979642 C14.2055614,9.1909516 14.5520551,10.0269931 14.5520551,11.0064289 C14.5520551,11.9858647 14.2055614,12.8219062 13.5127441,13.5147235" fill="#000000" fill-rule="nonzero"></path>
    </g>
</svg>
